<?xml version="1.0" standalone="no"?>
<!DOCTYPE svg PUBLIC "-//W3C//DTD SVG 20010904//EN"
 "http://www.w3.org/TR/2001/REC-SVG-20010904/DTD/svg10.dtd">
<svg version="1.0" xmlns="http://www.w3.org/2000/svg"
 width="1024.000000pt" height="1024.000000pt" viewBox="0 0 1024.000000 1024.000000"
 preserveAspectRatio="xMidYMid meet">

<g transform="translate(0.000000,1024.000000) scale(0.100000,-0.100000)"
fill="#000000" stroke="none">
<path d="M5270 6856 l0 -1434 43 5 c96 11 241 45 338 79 516 178 860 564 960
1076 29 145 31 377 5 518 -37 206 -126 417 -244 583 -67 94 -233 256 -334 327
-197 138 -465 246 -659 265 -35 3 -74 8 -86 11 l-23 4 0 -1434z"/>
<path d="M4784 8259 c-198 -41 -397 -123 -550 -224 -170 -114 -369 -330 -462
-505 -108 -202 -151 -369 -159 -621 -6 -187 3 -282 38 -422 90 -357 360 -695
703 -881 146 -80 366 -152 521 -171 28 -3 60 -8 73 -11 l22 -4 0 1430 0 1430
-47 -1 c-27 0 -89 -9 -139 -20z"/>
<path d="M3506 7918 c-108 -66 -309 -209 -440 -312 -200 -158 -443 -419 -604
-650 -78 -111 -232 -356 -232 -368 0 -3 35 13 79 33 177 84 273 103 494 96
150 -4 258 -22 330 -52 16 -7 17 4 17 136 0 382 132 751 386 1075 40 52 70 94
65 94 -4 0 -47 -24 -95 -52z"/>
<path d="M6665 7928 c59 -65 192 -273 245 -383 122 -255 180 -500 180 -760 0
-104 3 -126 14 -122 126 49 293 69 456 56 134 -11 241 -39 358 -94 50 -24 92
-40 92 -36 0 12 -141 238 -210 336 -161 231 -386 479 -580 641 -161 134 -553
404 -587 404 -3 0 12 -19 32 -42z"/>
<path d="M2635 6335 c-157 -28 -317 -111 -442 -229 -205 -193 -353 -499 -381
-786 l-8 -80 1230 0 c1083 0 1228 2 1210 15 -10 8 -24 15 -30 15 -18 0 -207
116 -294 181 -163 120 -283 251 -436 474 -119 175 -230 286 -344 343 -146 73
-335 99 -505 67z"/>
<path d="M7335 6343 c-122 -17 -277 -84 -369 -159 -63 -51 -122 -125 -271
-340 -161 -230 -378 -426 -612 -551 l-98 -53 1223 0 1222 0 0 28 c0 16 -7 71
-16 123 -80 472 -406 862 -784 939 -88 18 -216 24 -295 13z"/>
<path d="M3043 4922 c-684 -1 -1243 -5 -1243 -10 1 -39 34 -213 55 -290 107
-389 422 -715 760 -788 74 -16 251 -18 331 -3 203 37 376 155 511 348 173 248
285 374 446 502 96 78 234 165 332 210 58 28 60 28 54 32 -2 1 -563 1 -1246
-1z"/>
<path d="M6029 4875 c110 -54 207 -115 316 -200 153 -119 256 -233 417 -460
162 -229 284 -322 492 -375 90 -23 245 -27 341 -9 292 54 583 301 715 607 64
149 120 362 120 459 l0 23 -1247 0 -1247 0 93 -45z"/>
<path d="M4925 4713 c-167 -15 -363 -72 -519 -150 -150 -75 -253 -149 -376
-273 -209 -208 -337 -441 -397 -720 -27 -128 -25 -441 4 -566 43 -183 116
-342 226 -490 77 -103 226 -253 316 -318 203 -146 477 -250 720 -272 l71 -7 0
1402 c0 770 -1 1400 -2 1399 -2 -1 -21 -3 -43 -5z"/>
<path d="M5270 3320 l0 -1400 34 0 c54 0 204 29 296 56 534 161 930 584 1014
1083 9 54 16 153 16 230 0 230 -41 416 -135 606 -70 144 -138 244 -237 350
-260 278 -557 427 -935 470 l-53 6 0 -1401z"/>
<path d="M2244 3575 c13 -36 237 -362 311 -455 173 -217 419 -454 635 -611
134 -98 368 -249 386 -249 2 0 -34 50 -80 111 -137 180 -241 401 -300 638 -34
133 -46 232 -46 372 0 65 -4 119 -9 119 -5 0 -28 -7 -52 -16 -83 -29 -190 -44
-324 -44 -107 0 -151 5 -229 24 -100 26 -194 63 -260 104 -33 20 -38 21 -32 7z"/>
<path d="M7901 3539 c-142 -72 -227 -92 -408 -97 -159 -4 -248 8 -354 48 l-46
17 -6 -151 c-8 -247 -66 -479 -176 -711 -48 -102 -151 -263 -219 -345 l-37
-44 35 21 c19 12 58 34 85 50 359 211 699 511 938 828 86 114 293 423 286 429
-2 1 -46 -19 -98 -45z"/>
</g>
</svg>
